<mxfile modified="2022-10-30T02:02:25.644Z" host="Electron" agent="5.0 (Windows NT 10.0; Win64; x64) AppleWebKit/537.36 (KHTML, like Gecko) draw.io/20.3.0 Chrome/104.0.5112.114 Electron/20.1.3 Safari/537.36" etag="_XDkbSV-k4l8tIyD4qlQ" compressed="false" version="20.3.0" type="device">
  <diagram id="P8R_ujYhzhY3ImhZfcw1" name="User Context/Users">
    <mxGraphModel dx="782" dy="549" grid="1" gridSize="10" guides="1" tooltips="1" connect="1" arrows="1" fold="1" page="1" pageScale="1" pageWidth="827" pageHeight="1169" math="0" shadow="0">
      <root>
        <mxCell id="kmqt478jOupdFBZGFiFO-0" />
        <mxCell id="kmqt478jOupdFBZGFiFO-1" value="Diagram" parent="kmqt478jOupdFBZGFiFO-0" />
        <mxCell id="kmqt478jOupdFBZGFiFO-2" value="Organisation" style="rounded=1;whiteSpace=wrap;html=1;strokeColor=#4D4D4D;strokeWidth=1;fillColor=none;dashed=1;verticalAlign=top;align=left;spacingLeft=4;spacing=0;spacingTop=-5;fontColor=#999999;arcSize=16;absoluteArcSize=1;collapsible=0;container=1;recursiveResize=0;fontSize=12;" parent="kmqt478jOupdFBZGFiFO-1" vertex="1">
          <mxGeometry x="120" y="470" width="460" height="290" as="geometry" />
        </mxCell>
        <mxCell id="kmqt478jOupdFBZGFiFO-3" value="Business Group" style="rounded=1;whiteSpace=wrap;html=1;strokeColor=#4D4D4D;strokeWidth=1;fillColor=none;dashed=1;verticalAlign=top;align=left;spacingLeft=4;spacing=0;spacingTop=-5;fontColor=#999999;arcSize=16;absoluteArcSize=1;collapsible=0;container=1;recursiveResize=0;fontSize=12;" parent="kmqt478jOupdFBZGFiFO-2" vertex="1">
          <mxGeometry x="170" y="19" width="210" height="81" as="geometry" />
        </mxCell>
        <mxCell id="kmqt478jOupdFBZGFiFO-4" value="&lt;font style=&quot;font-size: 12px;&quot;&gt;Business&lt;br style=&quot;font-size: 12px;&quot;&gt;Support&lt;br style=&quot;font-size: 12px;&quot;&gt;&lt;/font&gt;" style="shape=image;html=1;verticalAlign=top;verticalLabelPosition=bottom;labelBackgroundColor=none;imageAspect=0;aspect=fixed;image=https://cdn0.iconfinder.com/data/icons/elasto-online-store/26/00-ELASTOFONT-STORE-READY_user-128.png;shadow=0;strokeColor=#4D4D4D;strokeWidth=2;fillColor=none;fontSize=12;fontColor=#000000;align=center;" parent="kmqt478jOupdFBZGFiFO-3" vertex="1">
          <mxGeometry x="160" y="21" width="20" height="20" as="geometry" />
        </mxCell>
        <mxCell id="kmqt478jOupdFBZGFiFO-19" value="&lt;font style=&quot;font-size: 12px;&quot;&gt;Biz Content&lt;br style=&quot;font-size: 12px;&quot;&gt;Developers&lt;br style=&quot;font-size: 12px;&quot;&gt;&lt;/font&gt;" style="shape=image;html=1;verticalAlign=top;verticalLabelPosition=bottom;labelBackgroundColor=none;imageAspect=0;aspect=fixed;image=https://cdn0.iconfinder.com/data/icons/elasto-online-store/26/00-ELASTOFONT-STORE-READY_user-128.png;shadow=0;strokeColor=#4D4D4D;strokeWidth=2;fillColor=none;fontSize=12;fontColor=#000000;align=center;" parent="kmqt478jOupdFBZGFiFO-3" vertex="1">
          <mxGeometry x="88" y="22" width="20" height="20" as="geometry" />
        </mxCell>
        <mxCell id="kmqt478jOupdFBZGFiFO-18" value="&lt;font style=&quot;font-size: 12px;&quot;&gt;Business&lt;br style=&quot;font-size: 12px;&quot;&gt;Users&lt;br style=&quot;font-size: 12px;&quot;&gt;&lt;/font&gt;" style="shape=image;html=1;verticalAlign=top;verticalLabelPosition=bottom;labelBackgroundColor=none;imageAspect=0;aspect=fixed;image=https://cdn0.iconfinder.com/data/icons/elasto-online-store/26/00-ELASTOFONT-STORE-READY_user-128.png;shadow=0;strokeColor=#4D4D4D;strokeWidth=2;fillColor=none;fontSize=12;fontColor=#000000;align=center;" parent="kmqt478jOupdFBZGFiFO-3" vertex="1">
          <mxGeometry x="20" y="21" width="20" height="20" as="geometry" />
        </mxCell>
        <mxCell id="kmqt478jOupdFBZGFiFO-5" value="Support" style="rounded=1;whiteSpace=wrap;html=1;strokeColor=#4D4D4D;strokeWidth=1;fillColor=none;dashed=1;verticalAlign=top;align=left;spacingLeft=4;spacing=0;spacingTop=-5;fontColor=#999999;arcSize=16;absoluteArcSize=1;collapsible=0;container=1;recursiveResize=0;fontSize=12;" parent="kmqt478jOupdFBZGFiFO-2" vertex="1">
          <mxGeometry x="10" y="19" width="150" height="80" as="geometry" />
        </mxCell>
        <mxCell id="kmqt478jOupdFBZGFiFO-6" value="&lt;font style=&quot;font-size: 12px;&quot;&gt;Customer&lt;br style=&quot;font-size: 12px;&quot;&gt;Support&lt;br style=&quot;font-size: 12px;&quot;&gt;&lt;/font&gt;" style="shape=image;html=1;verticalAlign=top;verticalLabelPosition=bottom;labelBackgroundColor=none;imageAspect=0;aspect=fixed;image=https://cdn0.iconfinder.com/data/icons/elasto-online-store/26/00-ELASTOFONT-STORE-READY_user-128.png;shadow=0;strokeColor=#4D4D4D;strokeWidth=2;fillColor=none;fontSize=12;fontColor=#000000;align=center;" parent="kmqt478jOupdFBZGFiFO-5" vertex="1">
          <mxGeometry x="20" y="20" width="20" height="20" as="geometry" />
        </mxCell>
        <mxCell id="A6WtNFrsDNKWG1MGvjbJ-3" value="&lt;font style=&quot;font-size: 12px;&quot;&gt;System &lt;br&gt;Support&lt;br style=&quot;font-size: 12px;&quot;&gt;&lt;/font&gt;" style="shape=image;html=1;verticalAlign=top;verticalLabelPosition=bottom;labelBackgroundColor=none;imageAspect=0;aspect=fixed;image=https://cdn0.iconfinder.com/data/icons/elasto-online-store/26/00-ELASTOFONT-STORE-READY_user-128.png;shadow=0;strokeColor=#4D4D4D;strokeWidth=2;fillColor=none;fontSize=12;fontColor=#000000;align=center;" vertex="1" parent="kmqt478jOupdFBZGFiFO-5">
          <mxGeometry x="98" y="20" width="20" height="20" as="geometry" />
        </mxCell>
        <mxCell id="kmqt478jOupdFBZGFiFO-8" value="Channel" style="rounded=1;whiteSpace=wrap;html=1;strokeColor=#4D4D4D;strokeWidth=1;fillColor=none;dashed=1;verticalAlign=top;align=left;spacingLeft=4;spacing=0;spacingTop=-5;fontColor=#999999;arcSize=16;absoluteArcSize=1;collapsible=0;container=1;recursiveResize=0;fontSize=12;" parent="kmqt478jOupdFBZGFiFO-2" vertex="1">
          <mxGeometry x="240" y="110" width="210" height="80" as="geometry" />
        </mxCell>
        <mxCell id="kmqt478jOupdFBZGFiFO-9" value="&lt;font style=&quot;font-size: 12px&quot;&gt;(Public)&lt;br&gt;Corporate&lt;br style=&quot;font-size: 12px&quot;&gt;Channel&lt;br style=&quot;font-size: 12px&quot;&gt;Support&lt;br style=&quot;font-size: 12px&quot;&gt;&lt;/font&gt;" style="shape=image;html=1;verticalAlign=top;verticalLabelPosition=bottom;labelBackgroundColor=none;imageAspect=0;aspect=fixed;image=https://cdn0.iconfinder.com/data/icons/elasto-online-store/26/00-ELASTOFONT-STORE-READY_user-128.png;shadow=0;strokeColor=#4D4D4D;strokeWidth=2;fillColor=none;fontSize=12;fontColor=#000000;align=center;dashed=1;imageBackground=#ffffff;" parent="kmqt478jOupdFBZGFiFO-8" vertex="1">
          <mxGeometry x="20" y="20" width="20" height="20" as="geometry" />
        </mxCell>
        <mxCell id="kmqt478jOupdFBZGFiFO-10" value="&lt;font style=&quot;font-size: 12px&quot;&gt;(Internal) &lt;br&gt;Organisation&lt;br style=&quot;font-size: 12px&quot;&gt;Channel&lt;br&gt;Support&lt;br style=&quot;font-size: 12px&quot;&gt;&lt;/font&gt;" style="shape=image;html=1;verticalAlign=top;verticalLabelPosition=bottom;labelBackgroundColor=none;imageAspect=0;aspect=fixed;image=https://cdn0.iconfinder.com/data/icons/elasto-online-store/26/00-ELASTOFONT-STORE-READY_user-128.png;shadow=0;strokeColor=#4D4D4D;strokeWidth=2;fillColor=none;fontSize=12;fontColor=#000000;align=center;dashed=1;" parent="kmqt478jOupdFBZGFiFO-8" vertex="1">
          <mxGeometry x="158" y="20" width="20" height="20" as="geometry" />
        </mxCell>
        <mxCell id="kmqt478jOupdFBZGFiFO-11" value="&lt;font style=&quot;font-size: 12px&quot;&gt;(External)&lt;br&gt;Sector&lt;br style=&quot;font-size: 12px&quot;&gt;Channel&lt;br&gt;Support&lt;br style=&quot;font-size: 12px&quot;&gt;&lt;/font&gt;" style="shape=image;html=1;verticalAlign=top;verticalLabelPosition=bottom;labelBackgroundColor=none;imageAspect=0;aspect=fixed;image=https://cdn0.iconfinder.com/data/icons/elasto-online-store/26/00-ELASTOFONT-STORE-READY_user-128.png;shadow=0;strokeColor=#4D4D4D;strokeWidth=2;fillColor=none;fontSize=12;fontColor=#000000;align=center;dashed=1;" parent="kmqt478jOupdFBZGFiFO-8" vertex="1">
          <mxGeometry x="89" y="20" width="20" height="20" as="geometry" />
        </mxCell>
        <mxCell id="kmqt478jOupdFBZGFiFO-12" value="Development" style="rounded=1;whiteSpace=wrap;html=1;strokeColor=#4D4D4D;strokeWidth=1;fillColor=none;dashed=1;verticalAlign=top;align=left;spacingLeft=4;spacing=0;spacingTop=-5;fontColor=#999999;arcSize=16;absoluteArcSize=1;collapsible=0;container=1;recursiveResize=0;fontSize=12;" parent="kmqt478jOupdFBZGFiFO-2" vertex="1">
          <mxGeometry x="10" y="200" width="210" height="80" as="geometry" />
        </mxCell>
        <mxCell id="kmqt478jOupdFBZGFiFO-13" value="&lt;font style=&quot;font-size: 12px;&quot;&gt;Development&lt;br style=&quot;font-size: 12px;&quot;&gt;Specialist&lt;br style=&quot;font-size: 12px;&quot;&gt;&lt;/font&gt;" style="shape=image;html=1;verticalAlign=top;verticalLabelPosition=bottom;labelBackgroundColor=none;imageAspect=0;aspect=fixed;image=https://cdn0.iconfinder.com/data/icons/elasto-online-store/26/00-ELASTOFONT-STORE-READY_user-128.png;shadow=0;strokeColor=#4D4D4D;strokeWidth=2;fillColor=none;fontSize=12;fontColor=#000000;align=center;dashed=1;" parent="kmqt478jOupdFBZGFiFO-12" vertex="1">
          <mxGeometry x="20" y="20" width="20" height="20" as="geometry" />
        </mxCell>
        <mxCell id="kmqt478jOupdFBZGFiFO-14" value="&lt;font style=&quot;font-size: 12px;&quot;&gt;Infrastructure&lt;br style=&quot;font-size: 12px;&quot;&gt;Specialist&lt;br style=&quot;font-size: 12px;&quot;&gt;&lt;/font&gt;" style="shape=image;html=1;verticalAlign=top;verticalLabelPosition=bottom;labelBackgroundColor=none;imageAspect=0;aspect=fixed;image=https://cdn0.iconfinder.com/data/icons/elasto-online-store/26/00-ELASTOFONT-STORE-READY_user-128.png;shadow=0;strokeColor=#4D4D4D;strokeWidth=2;fillColor=none;fontSize=12;fontColor=#000000;align=center;dashed=1;" parent="kmqt478jOupdFBZGFiFO-12" vertex="1">
          <mxGeometry x="99" y="20" width="20" height="20" as="geometry" />
        </mxCell>
        <mxCell id="kmqt478jOupdFBZGFiFO-17" value="&lt;font style=&quot;font-size: 12px;&quot;&gt;Deployment&lt;br style=&quot;font-size: 12px;&quot;&gt;Specialist&lt;br style=&quot;font-size: 12px;&quot;&gt;&lt;/font&gt;" style="shape=image;html=1;verticalAlign=top;verticalLabelPosition=bottom;labelBackgroundColor=none;imageAspect=0;aspect=fixed;image=https://cdn0.iconfinder.com/data/icons/elasto-online-store/26/00-ELASTOFONT-STORE-READY_user-128.png;shadow=0;strokeColor=#4D4D4D;strokeWidth=2;fillColor=none;fontSize=12;fontColor=#000000;align=center;dashed=1;" parent="kmqt478jOupdFBZGFiFO-12" vertex="1">
          <mxGeometry x="176" y="20.32861328125" width="20" height="20" as="geometry" />
        </mxCell>
        <mxCell id="A6WtNFrsDNKWG1MGvjbJ-6" value="Deployment" style="rounded=1;whiteSpace=wrap;html=1;strokeColor=#4D4D4D;strokeWidth=1;fillColor=none;dashed=1;verticalAlign=top;align=left;spacingLeft=4;spacing=0;spacingTop=-5;fontColor=#999999;arcSize=16;absoluteArcSize=1;collapsible=0;container=1;recursiveResize=0;fontSize=12;" vertex="1" parent="kmqt478jOupdFBZGFiFO-2">
          <mxGeometry x="240" y="200" width="210" height="80" as="geometry" />
        </mxCell>
        <mxCell id="A6WtNFrsDNKWG1MGvjbJ-7" value="&lt;font style=&quot;font-size: 12px;&quot;&gt;Privacy&lt;br&gt;Specialist&lt;br style=&quot;font-size: 12px;&quot;&gt;&lt;/font&gt;" style="shape=image;html=1;verticalAlign=top;verticalLabelPosition=bottom;labelBackgroundColor=none;imageAspect=0;aspect=fixed;image=https://cdn0.iconfinder.com/data/icons/elasto-online-store/26/00-ELASTOFONT-STORE-READY_user-128.png;shadow=0;strokeColor=#4D4D4D;strokeWidth=2;fillColor=none;fontSize=12;fontColor=#000000;align=center;" vertex="1" parent="A6WtNFrsDNKWG1MGvjbJ-6">
          <mxGeometry x="20" y="20" width="20" height="20" as="geometry" />
        </mxCell>
        <mxCell id="A6WtNFrsDNKWG1MGvjbJ-8" value="&lt;font style=&quot;font-size: 12px;&quot;&gt;Security&lt;br&gt;Specialist&lt;br style=&quot;font-size: 12px;&quot;&gt;&lt;/font&gt;" style="shape=image;html=1;verticalAlign=top;verticalLabelPosition=bottom;labelBackgroundColor=none;imageAspect=0;aspect=fixed;image=https://cdn0.iconfinder.com/data/icons/elasto-online-store/26/00-ELASTOFONT-STORE-READY_user-128.png;shadow=0;strokeColor=#4D4D4D;strokeWidth=2;fillColor=none;fontSize=12;fontColor=#000000;align=center;" vertex="1" parent="A6WtNFrsDNKWG1MGvjbJ-6">
          <mxGeometry x="88" y="20" width="20" height="20" as="geometry" />
        </mxCell>
        <mxCell id="A6WtNFrsDNKWG1MGvjbJ-9" value="&lt;font style=&quot;font-size: 12px;&quot;&gt;Change&lt;br&gt;Management&lt;br&gt;Specialist&lt;br style=&quot;font-size: 12px;&quot;&gt;&lt;/font&gt;" style="shape=image;html=1;verticalAlign=top;verticalLabelPosition=bottom;labelBackgroundColor=none;imageAspect=0;aspect=fixed;image=https://cdn0.iconfinder.com/data/icons/elasto-online-store/26/00-ELASTOFONT-STORE-READY_user-128.png;shadow=0;strokeColor=#4D4D4D;strokeWidth=2;fillColor=none;fontSize=12;fontColor=#000000;align=center;" vertex="1" parent="A6WtNFrsDNKWG1MGvjbJ-6">
          <mxGeometry x="158" y="20" width="20" height="20" as="geometry" />
        </mxCell>
        <mxCell id="A6WtNFrsDNKWG1MGvjbJ-11" value="Definition" style="rounded=1;whiteSpace=wrap;html=1;strokeColor=#4D4D4D;strokeWidth=1;fillColor=none;dashed=1;verticalAlign=top;align=left;spacingLeft=4;spacing=0;spacingTop=-5;fontColor=#999999;arcSize=16;absoluteArcSize=1;collapsible=0;container=1;recursiveResize=0;fontSize=12;" vertex="1" parent="kmqt478jOupdFBZGFiFO-2">
          <mxGeometry x="10" y="110" width="80" height="80" as="geometry" />
        </mxCell>
        <mxCell id="A6WtNFrsDNKWG1MGvjbJ-12" value="&lt;font style=&quot;font-size: 12px;&quot;&gt;BA&lt;br style=&quot;font-size: 12px;&quot;&gt;&lt;/font&gt;" style="shape=image;html=1;verticalAlign=top;verticalLabelPosition=bottom;labelBackgroundColor=none;imageAspect=0;aspect=fixed;image=https://cdn0.iconfinder.com/data/icons/elasto-online-store/26/00-ELASTOFONT-STORE-READY_user-128.png;shadow=0;strokeColor=#4D4D4D;strokeWidth=2;fillColor=none;fontSize=12;fontColor=#000000;align=center;dashed=1;" vertex="1" parent="A6WtNFrsDNKWG1MGvjbJ-11">
          <mxGeometry x="20" y="20" width="20" height="20" as="geometry" />
        </mxCell>
        <mxCell id="kmqt478jOupdFBZGFiFO-22" value="Distributors/Providers" style="rounded=1;whiteSpace=wrap;html=1;strokeColor=#4D4D4D;strokeWidth=1;fillColor=none;dashed=1;verticalAlign=top;align=left;spacingLeft=4;spacing=0;spacingTop=-5;fontColor=#999999;arcSize=16;absoluteArcSize=1;collapsible=0;container=1;recursiveResize=0;fontSize=12;" parent="kmqt478jOupdFBZGFiFO-1" vertex="1">
          <mxGeometry x="120" y="380" width="240" height="79" as="geometry" />
        </mxCell>
        <mxCell id="kmqt478jOupdFBZGFiFO-23" value="&lt;font style=&quot;font-size: 12px;&quot;&gt;Accountable&lt;br style=&quot;font-size: 12px;&quot;&gt;&lt;/font&gt;" style="shape=image;html=1;verticalAlign=top;verticalLabelPosition=bottom;labelBackgroundColor=none;imageAspect=0;aspect=fixed;image=https://cdn0.iconfinder.com/data/icons/elasto-online-store/26/00-ELASTOFONT-STORE-READY_user-128.png;shadow=0;strokeColor=#4D4D4D;strokeWidth=2;fillColor=none;fontSize=12;fontColor=#000000;align=center;" parent="kmqt478jOupdFBZGFiFO-22" vertex="1">
          <mxGeometry x="20" y="20" width="20" height="20" as="geometry" />
        </mxCell>
        <mxCell id="kmqt478jOupdFBZGFiFO-24" value="&lt;font style=&quot;font-size: 12px;&quot;&gt;Admin&lt;br style=&quot;font-size: 12px;&quot;&gt;&lt;/font&gt;" style="shape=image;html=1;verticalAlign=top;verticalLabelPosition=bottom;labelBackgroundColor=none;imageAspect=0;aspect=fixed;image=https://cdn0.iconfinder.com/data/icons/elasto-online-store/26/00-ELASTOFONT-STORE-READY_user-128.png;shadow=0;strokeColor=#4D4D4D;strokeWidth=2;fillColor=none;fontSize=12;fontColor=#000000;align=center;" parent="kmqt478jOupdFBZGFiFO-22" vertex="1">
          <mxGeometry x="79" y="20" width="20" height="20" as="geometry" />
        </mxCell>
        <mxCell id="kmqt478jOupdFBZGFiFO-25" value="&lt;font style=&quot;font-size: 12px;&quot;&gt;Specialists&lt;br style=&quot;font-size: 12px;&quot;&gt;&lt;/font&gt;" style="shape=image;html=1;verticalAlign=top;verticalLabelPosition=bottom;labelBackgroundColor=none;imageAspect=0;aspect=fixed;image=https://cdn0.iconfinder.com/data/icons/elasto-online-store/26/00-ELASTOFONT-STORE-READY_user-128.png;shadow=0;strokeColor=#4D4D4D;strokeWidth=2;fillColor=none;fontSize=12;fontColor=#000000;align=center;" parent="kmqt478jOupdFBZGFiFO-22" vertex="1">
          <mxGeometry x="130" y="20" width="20" height="20" as="geometry" />
        </mxCell>
        <mxCell id="kmqt478jOupdFBZGFiFO-26" value="&lt;font style=&quot;font-size: 12px;&quot;&gt;Support&lt;br style=&quot;font-size: 12px;&quot;&gt;Staff&lt;br style=&quot;font-size: 12px;&quot;&gt;&lt;/font&gt;" style="shape=image;html=1;verticalAlign=top;verticalLabelPosition=bottom;labelBackgroundColor=none;imageAspect=0;aspect=fixed;image=https://cdn0.iconfinder.com/data/icons/elasto-online-store/26/00-ELASTOFONT-STORE-READY_user-128.png;shadow=0;strokeColor=#4D4D4D;strokeWidth=2;fillColor=none;fontSize=12;fontColor=#000000;align=center;" parent="kmqt478jOupdFBZGFiFO-22" vertex="1">
          <mxGeometry x="190" y="20" width="20" height="20" as="geometry" />
        </mxCell>
        <mxCell id="kmqt478jOupdFBZGFiFO-27" value="Partners" style="rounded=1;whiteSpace=wrap;html=1;strokeColor=#4D4D4D;strokeWidth=1;fillColor=none;dashed=1;verticalAlign=top;align=left;spacingLeft=4;spacing=0;spacingTop=-5;fontColor=#999999;arcSize=16;absoluteArcSize=1;collapsible=0;container=1;recursiveResize=0;fontSize=12;" parent="kmqt478jOupdFBZGFiFO-1" vertex="1">
          <mxGeometry x="590" y="380" width="80" height="79" as="geometry" />
        </mxCell>
        <mxCell id="kmqt478jOupdFBZGFiFO-28" value="&lt;font style=&quot;font-size: 12px;&quot;&gt;Content&lt;br style=&quot;font-size: 12px;&quot;&gt;Developers&lt;br style=&quot;font-size: 12px;&quot;&gt;&lt;/font&gt;" style="shape=image;html=1;verticalAlign=top;verticalLabelPosition=bottom;labelBackgroundColor=none;imageAspect=0;aspect=fixed;image=https://cdn0.iconfinder.com/data/icons/elasto-online-store/26/00-ELASTOFONT-STORE-READY_user-128.png;shadow=0;strokeColor=#4D4D4D;strokeWidth=2;fillColor=none;fontSize=12;fontColor=#000000;align=center;" parent="kmqt478jOupdFBZGFiFO-27" vertex="1">
          <mxGeometry x="30" y="20.5" width="20" height="20" as="geometry" />
        </mxCell>
        <mxCell id="kmqt478jOupdFBZGFiFO-29" value="Consultants" style="rounded=1;whiteSpace=wrap;html=1;strokeColor=#4D4D4D;strokeWidth=1;fillColor=none;dashed=1;verticalAlign=top;align=left;spacingLeft=4;spacing=0;spacingTop=-5;fontColor=#999999;arcSize=16;absoluteArcSize=1;collapsible=0;container=1;recursiveResize=0;fontSize=12;" parent="kmqt478jOupdFBZGFiFO-1" vertex="1">
          <mxGeometry x="680" y="380" width="80" height="79" as="geometry" />
        </mxCell>
        <mxCell id="kmqt478jOupdFBZGFiFO-30" value="&lt;font style=&quot;font-size: 12px;&quot;&gt;Content&lt;br style=&quot;font-size: 12px;&quot;&gt;Developers&lt;br style=&quot;font-size: 12px;&quot;&gt;&lt;/font&gt;" style="shape=image;html=1;verticalAlign=top;verticalLabelPosition=bottom;labelBackgroundColor=none;imageAspect=0;aspect=fixed;image=https://cdn0.iconfinder.com/data/icons/elasto-online-store/26/00-ELASTOFONT-STORE-READY_user-128.png;shadow=0;strokeColor=#4D4D4D;strokeWidth=2;fillColor=none;fontSize=12;fontColor=#000000;align=center;" parent="kmqt478jOupdFBZGFiFO-29" vertex="1">
          <mxGeometry x="30" y="20.5" width="20" height="20" as="geometry" />
        </mxCell>
        <mxCell id="kmqt478jOupdFBZGFiFO-31" value="Peak Bodies" style="rounded=1;whiteSpace=wrap;html=1;strokeColor=#4D4D4D;strokeWidth=1;fillColor=none;dashed=1;verticalAlign=top;align=left;spacingLeft=4;spacing=0;spacingTop=-5;fontColor=#999999;arcSize=16;absoluteArcSize=1;collapsible=0;container=1;recursiveResize=0;fontSize=12;" parent="kmqt478jOupdFBZGFiFO-1" vertex="1">
          <mxGeometry x="370" y="380" width="120" height="80" as="geometry" />
        </mxCell>
        <mxCell id="kmqt478jOupdFBZGFiFO-32" value="&lt;font style=&quot;font-size: 12px;&quot;&gt;Union&lt;br style=&quot;font-size: 12px;&quot;&gt;Members&lt;br style=&quot;font-size: 12px;&quot;&gt;&lt;/font&gt;" style="shape=image;html=1;verticalAlign=top;verticalLabelPosition=bottom;labelBackgroundColor=none;imageAspect=0;aspect=fixed;image=https://cdn0.iconfinder.com/data/icons/elasto-online-store/26/00-ELASTOFONT-STORE-READY_user-128.png;shadow=0;strokeColor=#4D4D4D;strokeWidth=2;fillColor=none;fontSize=12;fontColor=#000000;align=center;" parent="kmqt478jOupdFBZGFiFO-31" vertex="1">
          <mxGeometry x="80" y="20.5" width="20" height="20" as="geometry" />
        </mxCell>
        <mxCell id="kmqt478jOupdFBZGFiFO-33" value="&lt;font style=&quot;font-size: 12px;&quot;&gt;Union&lt;br style=&quot;font-size: 12px;&quot;&gt;Admin&lt;br style=&quot;font-size: 12px;&quot;&gt;&lt;/font&gt;" style="shape=image;html=1;verticalAlign=top;verticalLabelPosition=bottom;labelBackgroundColor=none;imageAspect=0;aspect=fixed;image=https://cdn0.iconfinder.com/data/icons/elasto-online-store/26/00-ELASTOFONT-STORE-READY_user-128.png;shadow=0;strokeColor=#4D4D4D;strokeWidth=2;fillColor=none;fontSize=12;fontColor=#000000;align=center;" parent="kmqt478jOupdFBZGFiFO-31" vertex="1">
          <mxGeometry x="20" y="20.5" width="20" height="20" as="geometry" />
        </mxCell>
        <mxCell id="kmqt478jOupdFBZGFiFO-34" value="Public" style="rounded=1;whiteSpace=wrap;html=1;strokeColor=#4D4D4D;strokeWidth=1;fillColor=none;dashed=1;verticalAlign=top;align=left;spacingLeft=4;spacing=0;spacingTop=-5;fontColor=#999999;arcSize=16;absoluteArcSize=1;collapsible=0;container=1;recursiveResize=0;fontSize=12;" parent="kmqt478jOupdFBZGFiFO-1" vertex="1">
          <mxGeometry x="120" y="290" width="80" height="79" as="geometry" />
        </mxCell>
        <mxCell id="kmqt478jOupdFBZGFiFO-35" value="&lt;font style=&quot;font-size: 12px;&quot;&gt;Anonymous&lt;br style=&quot;font-size: 12px;&quot;&gt;Public&lt;br style=&quot;font-size: 12px;&quot;&gt;&lt;/font&gt;" style="shape=image;html=1;verticalAlign=top;verticalLabelPosition=bottom;labelBackgroundColor=none;imageAspect=0;aspect=fixed;image=https://cdn0.iconfinder.com/data/icons/elasto-online-store/26/00-ELASTOFONT-STORE-READY_user-128.png;shadow=0;strokeColor=#4D4D4D;strokeWidth=2;fillColor=none;fontSize=12;fontColor=#000000;align=center;" parent="kmqt478jOupdFBZGFiFO-34" vertex="1">
          <mxGeometry x="26" y="19.5" width="20" height="20" as="geometry" />
        </mxCell>
        <mxCell id="kmqt478jOupdFBZGFiFO-36" value="Public" style="rounded=1;whiteSpace=wrap;html=1;strokeColor=#4D4D4D;strokeWidth=1;fillColor=none;dashed=1;verticalAlign=top;align=left;spacingLeft=4;spacing=0;spacingTop=-5;fontColor=#999999;arcSize=16;absoluteArcSize=1;collapsible=0;container=1;recursiveResize=0;fontSize=12;" parent="kmqt478jOupdFBZGFiFO-1" vertex="1">
          <mxGeometry x="210" y="290" width="90" height="79" as="geometry" />
        </mxCell>
        <mxCell id="kmqt478jOupdFBZGFiFO-37" value="&lt;font style=&quot;font-size: 12px;&quot;&gt;Authenticated&lt;br style=&quot;font-size: 12px;&quot;&gt;Public&lt;br style=&quot;font-size: 12px;&quot;&gt;&lt;/font&gt;" style="shape=image;html=1;verticalAlign=top;verticalLabelPosition=bottom;labelBackgroundColor=none;imageAspect=0;aspect=fixed;image=https://cdn0.iconfinder.com/data/icons/elasto-online-store/26/00-ELASTOFONT-STORE-READY_user-128.png;shadow=0;strokeColor=#4D4D4D;strokeWidth=2;fillColor=none;fontSize=12;fontColor=#000000;align=center;" parent="kmqt478jOupdFBZGFiFO-36" vertex="1">
          <mxGeometry x="35" y="19.5" width="20" height="20" as="geometry" />
        </mxCell>
        <mxCell id="kmqt478jOupdFBZGFiFO-38" value="Systems" style="rounded=1;whiteSpace=wrap;html=1;strokeColor=#4D4D4D;strokeWidth=1;fillColor=none;dashed=1;verticalAlign=top;align=left;spacingLeft=4;spacing=0;spacingTop=-5;fontColor=#999999;arcSize=16;absoluteArcSize=1;collapsible=0;container=1;recursiveResize=0;fontSize=12;" parent="kmqt478jOupdFBZGFiFO-1" vertex="1">
          <mxGeometry x="310" y="290" width="90" height="79" as="geometry" />
        </mxCell>
        <mxCell id="kmqt478jOupdFBZGFiFO-39" value="&lt;font style=&quot;font-size: 12px;&quot;&gt;Remote Service&lt;br style=&quot;font-size: 12px;&quot;&gt;Consumers&lt;br style=&quot;font-size: 12px;&quot;&gt;&lt;/font&gt;" style="shape=image;html=1;verticalAlign=top;verticalLabelPosition=bottom;labelBackgroundColor=#ffffff;imageAspect=0;aspect=fixed;image=https://cdn4.iconfinder.com/data/icons/space-and-astronomy-1/800/robot-128.png;shadow=0;fontFamily=Helvetica;fontSize=12;fontColor=#000000;align=center;strokeColor=#4D4D4D;strokeWidth=2;" parent="kmqt478jOupdFBZGFiFO-38" vertex="1">
          <mxGeometry x="35" y="19.5" width="20" height="20" as="geometry" />
        </mxCell>
        <mxCell id="uxsCizR8dgZcxQHBSJLs-0" value="Auditors" style="rounded=1;whiteSpace=wrap;html=1;strokeColor=#4D4D4D;strokeWidth=1;fillColor=none;dashed=1;verticalAlign=top;align=left;spacingLeft=4;spacing=0;spacingTop=-5;fontColor=#999999;arcSize=16;absoluteArcSize=1;collapsible=0;container=1;recursiveResize=0;fontSize=12;" parent="kmqt478jOupdFBZGFiFO-1" vertex="1">
          <mxGeometry x="460" y="290" width="210" height="79" as="geometry" />
        </mxCell>
        <mxCell id="uxsCizR8dgZcxQHBSJLs-1" value="&lt;font style=&quot;font-size: 12px;&quot;&gt;Security&lt;br style=&quot;font-size: 12px;&quot;&gt;&lt;/font&gt;" style="shape=image;html=1;verticalAlign=top;verticalLabelPosition=bottom;labelBackgroundColor=none;imageAspect=0;aspect=fixed;image=https://cdn0.iconfinder.com/data/icons/elasto-online-store/26/00-ELASTOFONT-STORE-READY_user-128.png;shadow=0;strokeColor=#4D4D4D;strokeWidth=2;fillColor=none;fontSize=12;fontColor=#000000;align=center;" parent="uxsCizR8dgZcxQHBSJLs-0" vertex="1">
          <mxGeometry x="30" y="20.5" width="19.5" height="19.5" as="geometry" />
        </mxCell>
        <mxCell id="uxsCizR8dgZcxQHBSJLs-6" value="&lt;font style=&quot;font-size: 12px;&quot;&gt;Privacy&lt;br style=&quot;font-size: 12px;&quot;&gt;&lt;/font&gt;" style="shape=image;html=1;verticalAlign=top;verticalLabelPosition=bottom;labelBackgroundColor=none;imageAspect=0;aspect=fixed;image=https://cdn0.iconfinder.com/data/icons/elasto-online-store/26/00-ELASTOFONT-STORE-READY_user-128.png;shadow=0;strokeColor=#4D4D4D;strokeWidth=2;fillColor=none;fontSize=12;fontColor=#000000;align=center;" parent="uxsCizR8dgZcxQHBSJLs-0" vertex="1">
          <mxGeometry x="90" y="20.5" width="19.5" height="19.5" as="geometry" />
        </mxCell>
        <mxCell id="uxsCizR8dgZcxQHBSJLs-7" value="&lt;font style=&quot;font-size: 12px;&quot;&gt;Probity&lt;br style=&quot;font-size: 12px;&quot;&gt;&lt;/font&gt;" style="shape=image;html=1;verticalAlign=top;verticalLabelPosition=bottom;labelBackgroundColor=none;imageAspect=0;aspect=fixed;image=https://cdn0.iconfinder.com/data/icons/elasto-online-store/26/00-ELASTOFONT-STORE-READY_user-128.png;shadow=0;strokeColor=#4D4D4D;strokeWidth=2;fillColor=none;fontSize=12;fontColor=#000000;align=center;" parent="uxsCizR8dgZcxQHBSJLs-0" vertex="1">
          <mxGeometry x="150" y="20.5" width="19.5" height="19.5" as="geometry" />
        </mxCell>
        <mxCell id="kmqt478jOupdFBZGFiFO-20" value="Agencies" style="rounded=1;whiteSpace=wrap;html=1;strokeColor=#4D4D4D;strokeWidth=1;fillColor=none;dashed=1;verticalAlign=top;align=left;spacingLeft=4;spacing=0;spacingTop=-5;fontColor=#999999;arcSize=16;absoluteArcSize=1;collapsible=0;container=1;recursiveResize=0;fontSize=12;" parent="kmqt478jOupdFBZGFiFO-1" vertex="1">
          <mxGeometry x="500" y="381" width="80" height="79" as="geometry" />
        </mxCell>
        <mxCell id="kmqt478jOupdFBZGFiFO-21" value="&lt;font style=&quot;font-size: 12px;&quot;&gt;Business&lt;br style=&quot;font-size: 12px;&quot;&gt;Content Developers&lt;br style=&quot;font-size: 12px;&quot;&gt;&lt;/font&gt;" style="shape=image;html=1;verticalAlign=top;verticalLabelPosition=bottom;labelBackgroundColor=none;imageAspect=0;aspect=fixed;image=https://cdn0.iconfinder.com/data/icons/elasto-online-store/26/00-ELASTOFONT-STORE-READY_user-128.png;shadow=0;strokeColor=#4D4D4D;strokeWidth=2;fillColor=none;fontSize=12;fontColor=#000000;align=center;" parent="kmqt478jOupdFBZGFiFO-20" vertex="1">
          <mxGeometry x="30" y="20.5" width="20" height="20" as="geometry" />
        </mxCell>
        <mxCell id="kmqt478jOupdFBZGFiFO-40" value="Title/Diagram" parent="kmqt478jOupdFBZGFiFO-0" />
        <mxCell id="kmqt478jOupdFBZGFiFO-41" value="&lt;font style=&quot;font-size: 12px&quot;&gt;Diagram: Base System Logical Module - User Context - Users&lt;/font&gt;" style="text;strokeColor=none;fillColor=none;html=1;fontSize=12;fontStyle=2;verticalAlign=middle;align=left;shadow=0;glass=0;comic=0;opacity=30;fontColor=#808080;" parent="kmqt478jOupdFBZGFiFO-40" vertex="1">
          <mxGeometry x="120" y="780" width="520" height="20" as="geometry" />
        </mxCell>
      </root>
    </mxGraphModel>
  </diagram>
</mxfile>
